<?xml version="1.0" encoding="UTF-8"?>
<svg id="Ebene_1" data-name="Ebene 1" xmlns="http://www.w3.org/2000/svg" viewBox="0 0 703.31 320.13">
  <defs>
    <style>
      .cls-1 {
        fill: #1d1d1b;
      }
    </style>
  </defs>
  <path class="cls-1" d="M48.08,183.69s126.55,49.51,120.6,89c-6.39,42.45-56.11,39.32-72.89,40.08s-95.79-.39-95.79-.39l48.08-128.68Z"/>
  <path class="cls-1" d="M362.71,143.94L268.7,1.63,159.47,0c-10.43-.15-20.83,1.82-30.31,6.17-12.09,5.54-24.78,15.64-24.67,33.6.22,34.2,32.89,50.42,73.88,65.99s72.13,23.46,102.82,57.44,44.53,77.1,17.22,149.76l101.89,3.02c9.09-.07,15.77-1.46,22.76-5.13,13.58-7.13,33.59-23.74,50.52-62.34l35.08-86.21,58.11,157.81,136.51-.28-112.93-274.36c-.5-1.22-.97-2.46-1.44-3.69-3.16-8.29-26.75-59.11-165.48-29.15,0,0-7.22-8.51,0,0"/>
</svg>